<svg width="52" height="52" viewBox="0 0 52 52" fill="none" xmlns="http://www.w3.org/2000/svg">
<g filter="url(#filter0_d)">
<rect x="12" y="4" width="30" height="30" rx="5" fill="white"/>
</g>
<path d="M32.5104 20.9896C31.5846 20.0638 30.4827 19.3785 29.2804 18.9636C30.5681 18.0767 31.4141 16.5924 31.4141 14.9141C31.4141 12.2045 29.2096 10 26.5 10C23.7904 10 21.5859 12.2045 21.5859 14.9141C21.5859 16.5924 22.4319 18.0767 23.7196 18.9636C22.5174 19.3785 21.4154 20.0638 20.4896 20.9896C18.8842 22.595 18 24.7296 18 27H19.3281C19.3281 23.0454 22.5454 19.8281 26.5 19.8281C30.4546 19.8281 33.6719 23.0454 33.6719 27H35C35 24.7296 34.1158 22.595 32.5104 20.9896ZM26.5 18.5C24.5227 18.5 22.9141 16.8914 22.9141 14.9141C22.9141 12.9368 24.5227 11.3281 26.5 11.3281C28.4773 11.3281 30.0859 12.9368 30.0859 14.9141C30.0859 16.8914 28.4773 18.5 26.5 18.5Z" fill="black"/>
<defs>
<filter id="filter0_d" x="0" y="0" width="52" height="52" filterUnits="userSpaceOnUse" color-interpolation-filters="sRGB">
<feFlood flood-opacity="0" result="BackgroundImageFix"/>
<feColorMatrix in="SourceAlpha" type="matrix" values="0 0 0 0 0 0 0 0 0 0 0 0 0 0 0 0 0 0 127 0" result="hardAlpha"/>
<feMorphology radius="1" operator="dilate" in="SourceAlpha" result="effect1_dropShadow"/>
<feOffset dx="-1" dy="7"/>
<feGaussianBlur stdDeviation="5"/>
<feComposite in2="hardAlpha" operator="out"/>
<feColorMatrix type="matrix" values="0 0 0 0 0 0 0 0 0 0 0 0 0 0 0 0 0 0 0.07 0"/>
<feBlend mode="normal" in2="BackgroundImageFix" result="effect1_dropShadow"/>
<feBlend mode="normal" in="SourceGraphic" in2="effect1_dropShadow" result="shape"/>
</filter>
</defs>
</svg>
