<svg id="Icons" height="512" viewBox="0 0 74 74" width="512" xmlns="http://www.w3.org/2000/svg"><path d="m55.286 71.918c-8.962 0-22.14-7.065-34.186-19.113-7.683-7.683-13.641-16.193-16.777-23.963-3.245-8.042-3.09-14.416.438-17.942l7.49-7.49a4.807 4.807 0 0 1 6.8 0l10.42 10.419a4.813 4.813 0 0 1 0 6.8l-3.892 3.892c-2.2 2.2.236 9.542 7.252 16.558s14.359 9.451 16.56 7.252l3.89-3.89a4.8 4.8 0 0 1 6.8 0l10.419 10.414a4.814 4.814 0 0 1 0 6.8l-7.49 7.49a10.539 10.539 0 0 1 -7.724 2.773zm-39.637-67.918a2.788 2.788 0 0 0 -1.984.822l-7.49 7.49c-2.882 2.882-2.881 8.634 0 15.781 3.036 7.527 8.838 15.8 16.335 23.3 15.023 15.017 32.919 22.507 39.083 16.337l7.49-7.49a2.811 2.811 0 0 0 0-3.97l-10.42-10.419a2.875 2.875 0 0 0 -3.97 0l-3.89 3.89c-3.4 3.405-11.918.217-19.387-7.252s-10.655-15.989-7.253-19.389l3.892-3.892a2.813 2.813 0 0 0 0-3.97l-10.42-10.416a2.793 2.793 0 0 0 -1.986-.822z"/><path d="m16.875 3.827h2v22.349h-2z" transform="matrix(.707 -.707 .707 .707 -5.372 17.033)"/><path d="m57.903 44.855h2v22.349h-2z" transform="matrix(.707 -.707 .707 .707 -22.367 58.063)"/><path d="m44.363 39a1 1 0 0 1 -1-1v-6.636h-1.817a4.824 4.824 0 0 1 -4.818-4.819v-12.727a4.824 4.824 0 0 1 4.818-4.818h22.908a4.824 4.824 0 0 1 4.818 4.818v12.727a4.824 4.824 0 0 1 -4.818 4.819h-10.811l-8.629 7.4a1 1 0 0 1 -.651.236zm-2.817-28a2.821 2.821 0 0 0 -2.818 2.818v12.727a2.821 2.821 0 0 0 2.818 2.819h2.817a1 1 0 0 1 1 1v5.462l7.259-6.226a1 1 0 0 1 .65-.24h11.182a2.821 2.821 0 0 0 2.818-2.819v-12.723a2.821 2.821 0 0 0 -2.818-2.818z"/></svg>