<svg width="52" height="52" viewBox="0 0 52 52" fill="none" xmlns="http://www.w3.org/2000/svg">
<g filter="url(#filter0_d)">
<rect x="12" y="4" width="30" height="30" rx="5" fill="white"/>
</g>
<path d="M26.5 10C21.8023 10 18 13.8016 18 18.5C18 19.9909 18.3888 21.447 19.1272 22.7313L18.032 26.1323C17.9556 26.3694 18.0184 26.6293 18.1945 26.8055C18.369 26.9799 18.6283 27.045 18.8677 26.968L22.2687 25.8728C23.553 26.6112 25.0091 27 26.5 27C31.1977 27 35 23.1984 35 18.5C35 13.8023 31.1984 10 26.5 10ZM26.5 25.6719C25.1533 25.6719 23.8406 25.2961 22.7038 24.5853C22.5403 24.483 22.3372 24.4554 22.1482 24.5163L19.6931 25.3069L20.4837 22.8518C20.5437 22.6656 20.5184 22.4622 20.4146 22.2962C19.7039 21.1594 19.3281 19.8467 19.3281 18.5C19.3281 14.5455 22.5455 11.3281 26.5 11.3281C30.4545 11.3281 33.6719 14.5455 33.6719 18.5C33.6719 22.4545 30.4545 25.6719 26.5 25.6719ZM27.3301 18.5C27.3301 18.9584 26.9585 19.3301 26.5 19.3301C26.0415 19.3301 25.6699 18.9584 25.6699 18.5C25.6699 18.0415 26.0415 17.6699 26.5 17.6699C26.9585 17.6699 27.3301 18.0415 27.3301 18.5ZM30.6504 18.5C30.6504 18.9584 30.2788 19.3301 29.8203 19.3301C29.3618 19.3301 28.9902 18.9584 28.9902 18.5C28.9902 18.0415 29.3618 17.6699 29.8203 17.6699C30.2788 17.6699 30.6504 18.0415 30.6504 18.5ZM24.0098 18.5C24.0098 18.9584 23.6382 19.3301 23.1797 19.3301C22.7213 19.3301 22.3496 18.9584 22.3496 18.5C22.3496 18.0415 22.7213 17.6699 23.1797 17.6699C23.6382 17.6699 24.0098 18.0415 24.0098 18.5Z" fill="black"/>
<defs>
<filter id="filter0_d" x="0" y="0" width="52" height="52" filterUnits="userSpaceOnUse" color-interpolation-filters="sRGB">
<feFlood flood-opacity="0" result="BackgroundImageFix"/>
<feColorMatrix in="SourceAlpha" type="matrix" values="0 0 0 0 0 0 0 0 0 0 0 0 0 0 0 0 0 0 127 0" result="hardAlpha"/>
<feMorphology radius="1" operator="dilate" in="SourceAlpha" result="effect1_dropShadow"/>
<feOffset dx="-1" dy="7"/>
<feGaussianBlur stdDeviation="5"/>
<feComposite in2="hardAlpha" operator="out"/>
<feColorMatrix type="matrix" values="0 0 0 0 0 0 0 0 0 0 0 0 0 0 0 0 0 0 0.07 0"/>
<feBlend mode="normal" in2="BackgroundImageFix" result="effect1_dropShadow"/>
<feBlend mode="normal" in="SourceGraphic" in2="effect1_dropShadow" result="shape"/>
</filter>
</defs>
</svg>
