<svg width="52" height="52" viewBox="0 0 52 52" fill="none" xmlns="http://www.w3.org/2000/svg">
<g filter="url(#filter0_d)">
<rect x="12" y="4" width="30" height="30" rx="5" fill="white"/>
</g>
<g clip-path="url(#clip0)">
<path d="M34.8974 18.7402C34.7912 18.5895 34.6184 18.4999 34.434 18.5H32.7343V16.2333C32.734 15.9205 32.4805 15.667 32.1677 15.6666H31.601V13.4C31.6006 13.0872 31.3471 12.8337 31.0343 12.8333H30.1843V11.9833C30.1839 11.6705 29.9305 11.417 29.6176 11.4166H28.7676V10.5666C28.7673 10.2538 28.5138 10.0004 28.201 10H21.401C21.0882 10.0004 20.8347 10.2538 20.8343 10.5667V15.6667H18.2843C18.2671 15.6684 18.2502 15.6719 18.2337 15.6769C18.2181 15.6778 18.2027 15.6802 18.1875 15.6838C18.1852 15.6846 18.1838 15.6865 18.1816 15.6873C18.1617 15.6965 18.1429 15.7079 18.1256 15.7215C18.1125 15.7289 18.1 15.7373 18.0883 15.7467C18.0761 15.7603 18.0653 15.7752 18.0561 15.7909C18.0448 15.8047 18.0349 15.8194 18.0264 15.8351C18.0214 15.8498 18.0176 15.8649 18.0151 15.8803C18.0084 15.9006 18.0042 15.9216 18.0024 15.943C18.0024 15.9454 18.001 15.9474 18.001 15.95V26.7166C18.001 26.7203 18.003 26.7234 18.0031 26.727C18.0038 26.7603 18.0105 26.7931 18.0227 26.8241C18.0241 26.8277 18.0265 26.8307 18.0281 26.8342C18.0349 26.8501 18.0431 26.8655 18.0527 26.8799C18.0603 26.8895 18.0684 26.8985 18.0772 26.907C18.0815 26.9117 18.0852 26.9166 18.0899 26.921C18.1126 26.9427 18.1388 26.9603 18.1673 26.9732C18.1732 26.9759 18.1793 26.9777 18.1854 26.98C18.2169 26.9926 18.2504 26.9994 18.2843 27H31.8031C32.0426 26.9996 32.2561 26.8491 32.3369 26.6237L34.9678 19.2573C35.0298 19.0837 35.0036 18.8908 34.8974 18.7402ZM31.601 16.2333H32.1677V18.5H31.601V16.2333ZM31.0343 13.4V18.5H29.2336C30.0759 17.8218 30.3988 16.6859 30.0392 15.6659C29.6797 14.646 28.7158 13.9638 27.6343 13.9638C26.5529 13.9638 25.589 14.646 25.2294 15.6659C24.8699 16.6859 25.1928 17.8217 26.0351 18.5H24.2344V13.4H31.0343ZM27.6343 17.3667C27.86 17.3626 28.0794 17.4409 28.2515 17.5869C28.3951 17.6992 28.4806 17.8701 28.4843 18.0523V18.3059C27.9472 18.5647 27.3214 18.5647 26.7843 18.3059V18.0523C26.8348 17.6311 27.2119 17.3269 27.6343 17.3667ZM27.0677 16.2333C27.0677 15.9203 27.3214 15.6666 27.6343 15.6666C27.9473 15.6666 28.201 15.9203 28.201 16.2333C28.201 16.5463 27.9473 16.8 27.6343 16.8C27.3215 16.7996 27.068 16.5462 27.0677 16.2333ZM28.441 17.0275C28.8793 16.5836 28.8764 15.8689 28.4346 15.4285C27.9928 14.988 27.2782 14.9874 26.8356 15.4271C26.393 15.8668 26.3889 16.5814 26.8264 17.0261C26.5026 17.2173 26.284 17.5461 26.2329 17.9187C25.6651 17.3517 25.4948 16.4984 25.8017 15.7569C26.1085 15.0154 26.8319 14.5319 27.6344 14.5319C28.4368 14.532 29.1602 15.0156 29.467 15.7571C29.7738 16.4986 29.6035 17.3519 29.0355 17.9189C28.9989 17.6211 28.8503 17.3484 28.6199 17.1561C28.5638 17.1085 28.504 17.0655 28.441 17.0275ZM29.6177 11.9833V12.8333H24.2343C23.9215 12.8337 23.668 13.0872 23.6676 13.4V18.5H22.8176V11.9833H29.6177ZM21.401 10.5667H28.201V11.4167H22.8177C22.5049 11.417 22.2514 11.6705 22.251 11.9834V18.5H21.401V10.5667V10.5667ZM20.8343 16.2333V18.5433L19.6034 18.7485L18.6889 16.2334H20.8343V16.2333ZM18.5677 17.5584L19.0708 18.9422C19.1642 19.1989 19.4273 19.3524 19.6967 19.3074L20.6887 19.1421L18.5677 25.081V17.5584V17.5584ZM31.8031 26.4333H18.6864L21.3173 19.0666H34.434L31.8031 26.4333Z" fill="black"/>
<path d="M24.2334 21.8598V22.4667C24.2339 22.9359 24.6142 23.3162 25.0834 23.3167H29.0501C29.5193 23.3162 29.8996 22.9359 29.9001 22.4667V21.8598C30.4525 21.7181 30.813 21.1873 30.741 20.6215C30.6691 20.0558 30.187 19.6321 29.6167 19.6334C29.0464 19.6321 28.5644 20.0558 28.4925 20.6215C28.4205 21.1873 28.781 21.7181 29.3334 21.8598V22.4667C29.3333 22.6231 29.2065 22.7499 29.0501 22.75H25.0834C24.927 22.7498 24.8002 22.6231 24.8001 22.4667V21.8598C25.3527 21.7171 25.713 21.1858 25.641 20.6196C25.5691 20.0535 25.0874 19.6291 24.5167 19.6291C23.9461 19.6291 23.4644 20.0535 23.3925 20.6196C23.3205 21.1858 23.6808 21.7171 24.2334 21.8598ZM29.0694 20.6171C29.1358 20.3694 29.3603 20.1971 29.6167 20.1971C29.8732 20.1971 30.0977 20.3694 30.1641 20.6171C30.2305 20.8648 30.1222 21.1263 29.9001 21.2545V21.05C29.9001 20.8935 29.7732 20.7667 29.6167 20.7667C29.4603 20.7667 29.3334 20.8935 29.3334 21.05V21.2545C29.1113 21.1263 29.003 20.8648 29.0694 20.6171ZM24.4164 20.206C24.6874 20.1573 24.9543 20.3104 25.0489 20.569C25.1435 20.8276 25.0385 21.1168 24.8 21.2545V21.05C24.8 20.8935 24.6732 20.7667 24.5167 20.7667C24.3602 20.7667 24.2334 20.8935 24.2334 21.05V21.2545C24.0587 21.1541 23.9507 20.9682 23.9501 20.7666C23.9487 20.4913 24.1454 20.2548 24.4164 20.206Z" fill="black"/>
</g>
<defs>
<filter id="filter0_d" x="0" y="0" width="52" height="52" filterUnits="userSpaceOnUse" color-interpolation-filters="sRGB">
<feFlood flood-opacity="0" result="BackgroundImageFix"/>
<feColorMatrix in="SourceAlpha" type="matrix" values="0 0 0 0 0 0 0 0 0 0 0 0 0 0 0 0 0 0 127 0" result="hardAlpha"/>
<feMorphology radius="1" operator="dilate" in="SourceAlpha" result="effect1_dropShadow"/>
<feOffset dx="-1" dy="7"/>
<feGaussianBlur stdDeviation="5"/>
<feComposite in2="hardAlpha" operator="out"/>
<feColorMatrix type="matrix" values="0 0 0 0 0 0 0 0 0 0 0 0 0 0 0 0 0 0 0.07 0"/>
<feBlend mode="normal" in2="BackgroundImageFix" result="effect1_dropShadow"/>
<feBlend mode="normal" in="SourceGraphic" in2="effect1_dropShadow" result="shape"/>
</filter>
<clipPath id="clip0">
<rect width="17" height="17" fill="white" transform="translate(18 10)"/>
</clipPath>
</defs>
</svg>
