<svg width="26" height="40" viewBox="0 0 26 40" fill="none" xmlns="http://www.w3.org/2000/svg">
<path d="M22.8854 32.0214C21.9994 33.7139 20.8544 35.1724 19.5157 36.3136C18.1769 37.4549 16.6708 38.2565 15.0832 38.6728C13.4957 39.089 11.8578 39.1117 10.2632 38.7396C8.66856 38.3674 7.14847 37.6077 5.7897 36.5038C4.43092 35.3999 3.2601 33.9734 2.34412 32.306C1.42814 30.6385 0.784949 28.7626 0.451277 26.7855C0.117606 24.8084 0.0999903 22.7688 0.399449 20.7833C0.698909 18.7977 1.30957 16.905 2.19655 15.2134C5.92379 8.09915 24.6888 0.430664 24.6888 0.430664C24.6888 0.430664 26.6126 24.9071 22.8854 32.0214Z" fill="#635BE8"/>
</svg>
